<?xml version="1.0" encoding="utf-8"?>
<!-- Generator: Adobe Illustrator 27.1.1, SVG Export Plug-In . SVG Version: 6.00 Build 0)  -->
<svg version="1.1" id="Calque_1" xmlns="http://www.w3.org/2000/svg" xmlns:xlink="http://www.w3.org/1999/xlink" x="0px" y="0px"
	 viewBox="0 0 116 72" style="enable-background:new 0 0 116 72;" xml:space="preserve">
<path d="M97.5,56c0,0.7-0.6,1.4-1.4,1.4h-1.1c-0.7,0-1.3-0.6-1.3-1.4V38.6c0-0.8,0.6-1.4,1.3-1.4h1.1c0.8,0,1.4,0.6,1.4,1.4V56z
	 M109.5,58.4c0.8,0,1.4,0.6,1.4,1.4v1.4c0,0.8-0.6,1.4-1.4,1.4h-1.1c-0.7,0-1.3-0.6-1.3-1.4v-1.4c0-0.8,0.6-1.4,1.3-1.4
	C108.5,58.4,109.5,58.4,109.5,58.4z M49.2,62.5v-3.7l-0.1,0L49.2,62.5L49.2,62.5 M53.4,70.4c1.2-1.2,2-2.9,2-5.9V64
	c0-0.8-0.6-1.4-1.3-1.4h-1.1c-0.8,0-1.3,0.6-1.3,1.4v0.5c0,1.4-0.2,2.4-0.6,3c-0.3,0.4-1,0.7-1.7,0.7v3.7
	C50.5,71.9,52.1,71.6,53.4,70.4"/>
<path d="M52.9,46.4H54c0.7,0,1.3-0.6,1.3-1.4v-0.5c0-2.9-0.8-4.7-2-5.9c-1.2-1.1-2.7-1.5-4.1-1.5c-1.4,0-2.9,0.3-4.2,1.5
	c-1.2,1.1-2,3-2,5.9v10.6c0,3,0.8,4.7,2,5.9c1.2,1.2,2.7,1.5,4.1,1.5v-3.7c-1.6,0-2.3-1.2-2.3-3.6V44.6c0-2.5,0.8-3.6,2.4-3.6
	c1.5,0,2.4,1.1,2.4,3.6v0.5C51.6,45.8,52.2,46.4,52.9,46.4 M1.4,62.6C0.6,62.6,0,62,0,61.2c0,0,0,0,0,0V38.6c0-0.8,0.6-1.4,1.4-1.4
	h3.8c4.5,0,6.6,2.6,6.6,7.4v10.5c0,4.9-2.1,7.4-6.6,7.4L1.4,62.6L1.4,62.6z M3.7,41v17.9h1.5c2,0,2.8-1.2,2.8-3.7V44.7
	C8,42.2,7.2,41,5.2,41C5.2,41,3.7,41,3.7,41z M21.5,55.7h-3.8l-1.3,5.9c-0.1,0.6-0.8,1.1-1.3,1.1h-1.1c-0.9,0-1.5-0.8-1.3-1.6l1.8-8
	l3.4-14.7c0.2-0.6,0.8-1.1,1.3-1.1H20c0.6,0,1.2,0.5,1.3,1.1l5.2,22.6c0.2,0.9-0.4,1.7-1.3,1.7h-1.1c-0.6,0-1.2-0.5-1.3-1.1
	C22.7,61.5,21.5,55.7,21.5,55.7z M18.5,51.9h2.1c-0.4-1.8-0.3-2.8-1.1-6L18.5,51.9z M37.9,62.6c-0.5,0-1.1-0.4-1.2-0.8l-5.2-12.9
	v12.4c0,0.8-0.6,1.4-1.4,1.4H29c-0.7,0-1.4-0.6-1.4-1.4V38.6c0-0.8,0.6-1.4,1.4-1.4h0.9c0.5,0,1.1,0.4,1.2,0.8L36.4,51V38.6
	c0-0.8,0.6-1.4,1.4-1.4h1.1c0.8,0,1.4,0.6,1.4,1.4v22.6c0,0.8-0.6,1.4-1.4,1.4L37.9,62.6L37.9,62.6z M67.3,37.2
	c0.8,0,1.4,0.6,1.4,1.4v1c0,0.8-0.6,1.4-1.4,1.4h-5.8V48h4.7c0.8,0,1.4,0.6,1.4,1.4v1c0,0.8-0.6,1.4-1.4,1.4h-4.7v7.1h5.8
	c0.8,0,1.4,0.6,1.4,1.4v1c0,0.8-0.6,1.4-1.4,1.4h-8.1c-0.7,0-1.4-0.6-1.4-1.3c0,0,0,0,0,0V38.6c0-0.8,0.6-1.4,1.4-1.4H67.3z
	 M86.5,72c-2.7,0-5.1-0.3-7.1-0.8c-6.3-1.4-10.3-4.1-10.4-4.2c-0.4-0.3-0.5-0.9-0.2-1.3s0.9-0.5,1.3-0.2c0.1,0.1,3.9,2.7,9.8,4
	c8,1.7,15.8,0.4,23.2-4c0.5-0.3,1-0.1,1.3,0.4c0.2,0.4,0.1,1-0.3,1.3C97.6,70.8,91.5,72,86.5,72 M99.5,25.3c0.7,1.2,0.4,2.7-0.8,3.4
	c-1.2,0.7-2.7,0.4-3.4-0.8c0,0,0,0,0,0c-0.7-1.2-0.3-2.7,0.9-3.4C97.3,23.8,98.8,24.2,99.5,25.3"/>
<path d="M101.9,34.8c-0.3,0-0.6-0.2-0.8-0.5l-4.8-7.8c-0.3-0.4-0.1-1,0.3-1.3c0.4-0.3,1-0.1,1.3,0.3l0,0l4.8,7.8
	c0.3,0.4,0.1,1-0.3,1.3C102.2,34.8,102.1,34.8,101.9,34.8 M1.6,34.7c-0.7,0-1.3-0.6-1.4-1.3c0,0,0,0,0,0V10.8c0-0.8,0.6-1.4,1.4-1.4
	h3.7c4.4,0,6.3,2.4,6.3,7.2c0,3.5-1.6,5.4-1.6,5.4c1,1.2,1.6,3.1,1.6,5.4c0,4.8-2,7.2-6.3,7.2H1.6z M4,13.2v7.1h1.3
	c1.8,0,2.6-1,2.6-3.5c0-2.5-0.8-3.5-2.6-3.5C5.3,13.2,4,13.2,4,13.2z M4,23.9V31h1.3c1.8,0,2.6-1,2.6-3.5c0-2.6-0.8-3.6-2.6-3.6H4z
	 M26.6,33.4c0,0.8-0.6,1.4-1.4,1.4h-1c-0.7,0-1.3-0.6-1.4-1.3c0,0,0,0,0,0v-6.3c0-1.9-1-2.9-2.9-2.9h-1.7v9.2c0,0.8-0.6,1.4-1.3,1.4
	h-1.1c-0.7,0-1.3-0.6-1.4-1.3c0,0,0,0,0,0V10.8c0-0.8,0.6-1.4,1.4-1.4h4.7c4.6,0,6.2,2.3,6.2,7.4c0,2.3-0.4,4.2-1.6,5.4L25,22.4
	c1.1,1.2,1.6,2.7,1.6,4.7C26.6,27.1,26.6,33.4,26.6,33.4z M18.2,20.4h1.7c2.1,0,3.2-1.1,3.2-3.6s-0.6-3.6-2.5-3.6h-2.4V20.4z
	 M37.8,27.8c0,1.8-0.5,3.2-2.4,3.2c-1.8,0-2.4-1.2-2.4-3.2V10.8c0-0.8-0.6-1.4-1.4-1.4h-1c-0.7,0-1.3,0.6-1.3,1.4v17.1
	c0,4,1.7,6.9,6.2,6.9c4.4,0,6.2-2.7,6.2-6.9V13.2h-3.7L37.8,27.8L37.8,27.8z"/>
<path d="M43.9,26.9c0-0.8,0.6-1.4,1.4-1.4h1c0.7,0,1.3,0.6,1.4,1.4v0.5c0,1.8,0.3,2.7,0.9,3.1c0.4,0.4,1.1,0.5,1.6,0.5
	c1.6,0,2.4-0.7,2.4-2.7c0-1.8-1.7-3.2-3.6-4.6v0c-2.5-2-5.1-4-5.1-7.7c0-4.2,2.2-6.7,6.2-6.7c4.1,0,6.2,2.6,6.2,7.4v0.5
	c0,0.8-0.6,1.4-1.4,1.4h-1c-0.8,0-1.4-0.6-1.4-1.4v-0.5c0-2.5-0.8-3.6-2.4-3.6c-1.6,0-2.4,0.9-2.4,2.8c0,1.9,1.8,3.4,3.7,4.8h0
	c2.5,1.9,5,3.8,5,7.5c0,4.2-2.2,6.5-6.2,6.5c-4.1,0-6.2-2.4-6.2-7.3L43.9,26.9L43.9,26.9z M58.9,26.9c0-0.8,0.6-1.4,1.4-1.4h1.1
	c0.7,0,1.4,0.6,1.4,1.4v0.5c0,1.8,0.3,2.7,0.9,3.1c0.4,0.4,1.1,0.5,1.6,0.5c1.6,0,2.4-0.7,2.4-2.7c0-1.8-1.7-3.2-3.6-4.6v0
	c-2.5-2-5.1-4-5.1-7.7c0-4.2,2.2-6.7,6.2-6.7c4.1,0,6.2,2.6,6.2,7.4v0.5c0,0.8-0.6,1.4-1.4,1.4h-1.1c-0.8,0-1.4-0.6-1.4-1.4v-0.5
	c0-2.5-0.8-3.6-2.4-3.6c-1.6,0-2.4,0.9-2.4,2.8c0,1.9,1.8,3.4,3.7,4.8h0c2.5,1.9,5,3.8,5,7.5c0,4.2-2.2,6.5-6.2,6.5
	c-4.1,0-6.2-2.4-6.2-7.3C58.9,27.4,58.9,26.9,58.9,26.9z M83.2,9.4c0.8,0,1.4,0.6,1.4,1.4v1c0,0.8-0.6,1.4-1.4,1.4h-5.7v7.1h4.7
	c0.8,0,1.4,0.6,1.4,1.4v1c0,0.8-0.6,1.4-1.4,1.4h-4.7V31h5.7c0.8,0,1.4,0.6,1.4,1.4v1c0,0.8-0.6,1.4-1.4,1.4h-8.1
	c-0.7,0-1.3-0.6-1.4-1.3c0,0,0,0,0,0V10.8c0-0.8,0.6-1.4,1.4-1.4H83.2L83.2,9.4z M97.5,33.4c0,0.8-0.6,1.4-1.4,1.4h-8
	c-0.7,0-1.3-0.6-1.4-1.3c0,0,0,0,0,0V10.8c0-0.8,0.6-1.4,1.4-1.4h1.1c0.7,0,1.3,0.6,1.3,1.4V31h5.6c0.8,0,1.4,0.6,1.4,1.4V33.4z
	 M113.7,39.5c-0.5-0.5-0.9-1.3-0.9-3.1v-0.5c0-0.7-0.6-1.3-1.3-1.4h-1.1c-0.8,0-1.3,0.6-1.3,1.3v0.5c0,4.9,2.1,7.3,6.2,7.3V40
	C114.7,40,114.1,39.9,113.7,39.5 M104.6,31v3.7h0L104.6,31L104.6,31"/>
<path d="M108.5,18.6h1.1c0.8,0,1.4-0.6,1.4-1.4v-0.5c0-4.8-2.1-7.4-6.2-7.4c-4,0-6.2,2.4-6.2,6.7c0,3.7,2.6,5.7,5.1,7.7v0
	c1.8,1.4,3.6,2.8,3.6,4.6c0,2-0.9,2.7-2.4,2.7v3.7c4,0,6.2-2.3,6.2-6.5c0-3.6-2.5-5.6-5-7.5h0c-1.8-1.4-3.7-2.9-3.7-4.8
	c0-2,0.9-2.8,2.4-2.8c1.7,0,2.4,1.1,2.4,3.6v0.5C107.1,18,107.7,18.6,108.5,18.6 M86.4,57.6c1.4,0,2.5,1.2,2.4,2.5
	c0,1.4-1.2,2.5-2.5,2.4s-2.5-1.2-2.4-2.5S85.1,57.6,86.4,57.6"/>
<path d="M94.7,61.1H79.9c-0.5,0-1-0.4-1-1s0.4-1,1-1h14.7c0.5,0,0.9,0.5,0.9,1C95.6,60.6,95.2,61,94.7,61.1"/>
</svg>
