<?xml version="1.0" standalone="no"?>
<!DOCTYPE svg PUBLIC "-//W3C//DTD SVG 20010904//EN"
 "http://www.w3.org/TR/2001/REC-SVG-20010904/DTD/svg10.dtd">
<svg version="1.0" xmlns="http://www.w3.org/2000/svg"
 width="928.000000pt" height="928.000000pt" viewBox="0 0 928.000000 928.000000"
 preserveAspectRatio="xMidYMid meet">
<metadata>
Created by potrace 1.14, written by Peter Selinger 2001-2017
</metadata>
<g transform="translate(0.000000,928.000000) scale(0.100000,-0.100000)"
fill="#000000" stroke="none">
<path d="M3868 6759 c-98 -23 -151 -52 -214 -114 -41 -41 -100 -135 -111 -180
-37 -140 -37 -359 -1 -402 6 -7 8 -13 4 -13 -4 0 3 -19 15 -42 65 -130 188
-257 404 -418 70 -52 174 -153 198 -192 50 -79 57 -200 17 -277 -35 -70 -158
-102 -250 -64 -83 34 -103 81 -115 273 -5 80 -22 115 -66 137 -34 18 -144 16
-180 -3 -36 -18 -60 -68 -54 -112 2 -17 7 -69 10 -114 11 -153 59 -287 128
-356 53 -52 61 -59 113 -85 70 -35 165 -54 264 -51 299 6 462 167 477 469 7
128 -7 200 -56 300 -41 84 -126 182 -226 261 -27 21 -55 44 -61 49 -7 6 -24
19 -40 30 -63 45 -191 154 -217 186 -68 81 -92 143 -88 229 5 140 77 209 206
198 114 -10 161 -79 172 -253 3 -55 9 -110 14 -122 14 -37 56 -57 128 -60 127
-6 170 38 165 167 -4 93 -14 178 -24 206 -5 13 -8 24 -5 24 2 0 -7 27 -20 59
-55 141 -146 226 -287 267 -75 23 -211 24 -300 3z"/>
<path d="M5158 6775 c-2 -2 -21 -5 -43 -8 -177 -24 -309 -136 -364 -308 -21
-66 -23 -83 -26 -198 -2 -121 6 -162 50 -260 41 -88 88 -145 234 -281 13 -12
93 -76 215 -170 53 -40 139 -137 161 -179 13 -26 25 -67 28 -91 5 -50 -12
-160 -25 -160 -4 0 -8 -6 -8 -12 0 -7 -17 -24 -37 -38 -31 -21 -47 -25 -118
-25 -75 0 -86 3 -119 29 -55 41 -75 97 -80 220 -4 107 -10 129 -44 159 -26 24
-78 32 -177 26 -25 -2 -87 -47 -80 -59 3 -5 1 -11 -4 -15 -6 -3 -8 -31 -5 -63
2 -31 7 -84 9 -117 3 -33 7 -70 10 -82 3 -13 7 -33 10 -44 48 -220 207 -346
448 -354 168 -5 311 46 396 142 28 31 51 63 51 70 0 7 5 13 10 13 6 0 9 3 8 8
-1 4 4 21 11 37 39 95 53 253 32 363 -27 138 -117 269 -270 392 -24 19 -48 40
-55 45 -6 6 -27 22 -46 35 -19 13 -40 29 -46 35 -6 5 -26 21 -45 35 -104 77
-204 202 -215 271 -31 179 50 289 201 277 115 -10 163 -82 172 -254 7 -156 38
-189 169 -182 81 5 119 23 136 66 11 27 12 176 2 222 -3 14 -7 43 -10 64 -3
22 -10 48 -15 57 -5 10 -9 27 -9 38 0 12 -4 21 -10 21 -5 0 -10 7 -10 16 0 21
-62 114 -97 145 -58 51 -141 91 -217 105 -35 6 -173 13 -178 9z"/>
<path d="M8317 6774 c-1 -1 -22 -5 -47 -8 -186 -25 -323 -161 -365 -361 -17
-83 -19 -214 -4 -287 10 -47 63 -174 78 -188 4 -3 18 -21 33 -40 40 -53 96
-110 168 -170 35 -30 70 -59 76 -65 7 -5 36 -28 65 -50 79 -59 214 -196 232
-236 27 -59 34 -103 27 -160 -16 -114 -67 -162 -177 -168 -15 -1 -17 -290 -3
-292 83 -11 222 23 293 73 122 83 187 222 192 409 5 187 -46 309 -190 454 -49
50 -103 100 -119 110 -16 11 -36 28 -45 38 -8 9 -20 17 -26 17 -6 0 -17 9 -25
20 -8 11 -18 20 -23 20 -26 0 -203 182 -232 239 -66 131 -22 301 84 331 51 14
116 12 155 -4 51 -21 102 -101 105 -166 0 -8 2 -54 5 -101 2 -47 9 -95 15
-107 19 -35 60 -50 139 -50 110 1 149 35 153 133 1 41 -10 186 -17 207 -3 9
-7 27 -9 39 -20 102 -90 219 -164 273 -44 33 -141 81 -141 71 0 -3 -12 0 -27
6 -23 9 -198 20 -206 13z"/>
<path d="M74 6753 c-63 -30 -60 12 -59 -998 1 -506 4 -929 8 -941 13 -36 66
-68 111 -65 23 1 127 3 231 6 182 3 201 5 235 18 8 3 32 11 53 17 71 22 152
93 197 173 81 144 101 392 48 597 -17 66 -70 176 -93 192 -5 4 -3 14 7 25 26
30 75 143 94 218 24 94 24 321 1 418 -47 193 -157 304 -339 341 -94 20 -453
18 -494 -1z m366 -298 c106 -12 158 -58 180 -159 19 -86 12 -227 -13 -288 -31
-74 -88 -107 -194 -112 -89 -4 -95 -1 -91 50 2 24 -1 44 -5 44 -5 0 -6 4 -2
10 3 5 6 109 6 232 1 123 3 226 5 229 4 6 10 6 114 -6z m65 -860 c91 -32 126
-109 125 -280 0 -75 -2 -91 -20 -151 -26 -88 -83 -121 -203 -120 l-82 1 -2
283 -1 283 73 -2 c40 -1 89 -8 110 -14z"/>
<path d="M1231 6763 c-30 -6 -57 -31 -69 -64 -15 -39 -15 -1856 0 -1894 19
-48 57 -75 108 -76 114 -3 139 5 167 48 16 24 18 64 19 403 0 207 3 381 7 387
8 13 177 9 224 -6 55 -16 89 -48 113 -103 22 -51 23 -64 24 -348 1 -293 1
-296 24 -325 31 -40 65 -52 141 -49 68 2 106 21 128 65 18 36 15 618 -4 702
-14 62 -57 160 -81 185 -22 24 -33 50 -23 57 23 13 70 97 89 157 28 86 39 188
35 312 -2 55 -4 108 -4 116 -1 30 -32 166 -47 200 -25 60 -84 131 -136 165
-52 33 -68 39 -171 62 -39 10 -497 14 -544 6z m478 -308 c57 -9 104 -57 121
-122 16 -60 20 -214 7 -268 -24 -95 -93 -160 -182 -171 -45 -6 -187 -5 -193 0
-8 9 -9 560 -1 566 10 7 197 4 248 -5z"/>
<path d="M2403 6753 c-60 -29 -58 2 -57 -812 0 -410 3 -765 7 -789 32 -204
130 -331 302 -390 111 -39 307 -31 420 18 118 50 213 172 240 307 17 83 19
170 19 748 l1 630 -138 0 c-76 0 -143 -2 -148 -6 -6 -4 -12 -159 -15 -405 -11
-923 -9 -899 -74 -964 -20 -20 -50 -40 -65 -42 -39 -8 -147 -1 -154 9 -3 4
-15 13 -26 19 -23 13 -54 61 -60 95 -10 52 -17 105 -16 119 0 8 0 60 0 115 0
55 0 109 0 120 0 11 0 65 0 120 0 55 0 109 0 120 0 11 0 65 0 120 0 55 0 109
0 120 0 11 0 65 0 120 0 55 0 109 0 120 0 11 0 65 0 120 0 140 0 131 1 221 2
95 -15 146 -57 167 -36 19 -142 19 -180 0z"/>
<path d="M5965 6759 c-18 -5 -38 -22 -50 -41 -19 -32 -19 -58 -20 -969 l0
-935 25 -32 c14 -17 37 -35 53 -39 21 -6 628 -10 709 -4 10 0 32 14 50 30 31
28 33 33 35 109 2 69 -1 85 -20 113 -12 18 -35 36 -52 41 -16 4 -135 9 -263 9
l-233 1 2 88 c1 49 -2 93 -5 99 -4 6 -4 11 1 11 8 0 7 125 -2 148 -2 6 -1 12
3 12 4 0 6 40 4 89 -1 50 2 92 8 96 5 3 94 6 197 7 194 1 219 4 254 37 29 27
39 153 15 203 -28 59 -44 62 -272 63 l-204 0 1 102 c0 56 -2 107 -6 113 -3 5
-3 10 2 10 8 0 8 153 -1 175 -2 7 -2 16 1 19 3 3 6 38 7 77 l1 73 245 1 c267
1 277 3 304 59 8 16 14 58 14 95 0 81 -14 112 -63 138 -24 13 -695 15 -740 2z"/>
<path d="M6982 6746 c-13 -11 -30 -33 -36 -50 -10 -24 -12 -255 -12 -951 1
-888 2 -921 21 -952 33 -55 48 -57 413 -58 353 0 384 3 410 46 17 27 22 53 23
109 0 70 -8 93 -43 123 -36 30 -16 28 -355 28 l-162 0 -1 144 c-1 164 -1 153
-1 220 0 28 0 59 0 70 0 11 0 106 1 212 0 105 0 195 -1 200 -1 4 0 13 1 18 1
6 1 60 0 120 -1 61 -1 115 -1 120 0 6 0 33 0 60 0 28 0 59 0 70 1 17 0 161 0
190 0 6 0 30 0 55 0 25 1 54 1 65 -1 11 0 37 0 57 2 48 -23 94 -61 113 -43 23
-164 17 -197 -9z"/>
<path d="M7730 5576 c-83 -36 -131 -104 -132 -186 0 -106 88 -198 188 -194 37
1 42 -2 72 -47 18 -27 32 -51 32 -53 0 -3 22 -37 48 -78 27 -40 52 -80 55 -88
4 -8 15 -27 25 -42 9 -15 33 -52 52 -82 34 -56 58 -72 94 -67 25 4 45 24 57
60 9 25 6 37 -17 78 -15 26 -38 62 -51 79 -13 17 -23 34 -23 38 0 3 -15 30
-34 59 -131 204 -138 219 -125 246 29 63 20 152 -23 214 -40 57 -157 90 -218
63z"/>
<path d="M8848 4759 c-45 -4 -74 -12 -88 -24 -20 -18 -35 -70 -33 -115 1 -14
2 -50 3 -80 1 -30 8 -84 16 -120 41 -193 126 -303 273 -355 84 -29 196 -42
203 -23 2 7 4 71 3 143 l-1 130 -48 9 c-95 17 -145 103 -150 258 -3 83 -28
164 -47 152 -5 -3 -9 -1 -9 3 0 18 -57 28 -122 22z"/>
<path d="M67 4533 c-71 -29 -67 33 -67 -1003 0 -813 2 -935 15 -960 27 -53 51
-58 245 -54 266 5 348 17 443 66 106 53 205 198 222 323 3 17 8 57 12 90 10
73 9 1032 -1 1095 -14 92 -18 106 -44 170 -30 74 -27 69 -84 134 -47 54 -90
83 -158 110 -85 34 -126 38 -353 40 -142 1 -207 -2 -230 -11z m425 -304 c75
-19 132 -95 141 -188 2 -23 6 -44 10 -47 4 -4 4 -11 0 -17 -4 -6 -5 -42 -4
-81 1 -39 2 -77 2 -83 0 -7 0 -42 0 -78 0 -36 0 -71 0 -77 -1 -7 -1 -67 -1
-133 0 -66 0 -167 -1 -225 0 -58 0 -111 0 -117 1 -7 1 -19 2 -25 2 -40 -11
-178 -20 -207 -35 -115 -100 -146 -291 -142 l-35 1 0 715 0 715 80 -1 c44 -1
97 -5 117 -10z"/>
<path d="M2273 4533 c-69 -28 -65 25 -65 -1005 0 -707 3 -935 12 -958 19 -45
54 -62 134 -65 88 -3 120 8 146 49 19 32 20 50 21 542 0 280 3 502 6 494 3 -8
11 -28 18 -45 26 -63 40 -100 38 -107 -1 -3 4 -12 12 -18 8 -7 15 -18 15 -24
0 -10 181 -469 209 -531 5 -11 31 -74 56 -140 26 -66 54 -134 63 -152 42 -84
238 -84 274 1 10 25 13 220 13 962 0 866 -1 932 -18 957 -9 14 -26 31 -38 37
-31 17 -149 19 -190 3 -69 -27 -68 -20 -66 -581 1 -276 -1 -498 -5 -494 -3 4
-36 81 -73 172 -36 91 -72 179 -80 195 -7 17 -40 98 -73 180 -86 213 -181 445
-199 482 -8 17 -28 37 -44 43 -41 17 -128 19 -166 3z"/>
<path d="M3805 4541 c-16 -4 -41 -14 -55 -21 -14 -7 -27 -13 -30 -13 -33 4
-162 -107 -190 -163 -8 -16 -19 -36 -25 -44 -12 -16 -40 -104 -50 -155 -10
-55 -20 -213 -15 -240 1 -5 2 -14 1 -19 -1 -6 -2 -48 -1 -95 1 -47 1 -97 1
-111 0 -14 0 -70 0 -125 0 -55 0 -109 0 -120 0 -11 0 -65 0 -120 0 -55 0 -107
-1 -115 -3 -95 8 -254 19 -282 6 -16 9 -28 6 -28 -2 0 2 -19 11 -42 43 -127
125 -228 223 -277 66 -33 95 -41 174 -47 l58 -4 -2 70 c-1 39 1 73 4 77 12 11
8 25 -5 17 -7 -5 -8 -3 -2 7 13 22 16 51 3 43 -8 -4 -8 -1 -2 12 5 11 9 30 9
43 -1 19 -7 25 -31 28 -80 11 -128 64 -149 164 -8 41 -11 208 -11 561 1 441 3
510 18 558 30 98 99 148 190 137 62 -8 93 -25 123 -68 32 -46 44 -92 49 -187
5 -105 13 -129 46 -153 24 -17 44 -21 99 -20 84 1 111 11 135 47 31 48 23 233
-15 358 -53 169 -153 272 -315 321 -47 14 -223 18 -270 6z"/>
<path d="M4690 4533 c-16 -6 -37 -24 -47 -39 -17 -27 -18 -76 -19 -964 -1
-1012 -3 -968 53 -1008 26 -18 49 -19 383 -17 195 0 364 4 376 8 39 13 62 74
59 154 -3 81 -22 116 -70 132 -16 6 -118 10 -225 10 -107 0 -214 0 -238 0
l-42 1 2 283 3 282 185 1 c242 2 225 0 262 33 31 28 33 33 35 107 2 84 -12
125 -48 144 -26 15 -119 29 -119 19 0 -4 -8 -5 -17 -3 -33 8 -183 9 -183 1 0
-5 -5 -5 -11 -1 -6 3 -33 6 -59 5 l-48 -1 -1 280 0 279 244 0 c272 0 290 4
317 63 20 44 17 158 -6 192 -9 14 -26 31 -38 38 -32 17 -708 18 -748 1z"/>
<path d="M7561 4534 c-16 -7 -38 -25 -47 -40 -17 -26 -18 -71 -19 -733 0 -388
2 -723 6 -745 10 -55 39 -79 102 -86 82 -8 138 5 168 40 14 17 26 38 27 48 0
9 1 335 2 724 1 783 3 762 -62 789 -41 17 -140 19 -177 3z"/>
<path d="M1493 4520 c-16 -9 -34 -24 -41 -32 -10 -13 -40 -115 -57 -193 -18
-89 -36 -165 -40 -176 -2 -8 -7 -25 -9 -39 -3 -14 -19 -86 -36 -160 -18 -74
-33 -142 -35 -150 -2 -8 -20 -85 -40 -170 -19 -85 -38 -164 -40 -175 -3 -10
-21 -90 -40 -177 -20 -87 -38 -164 -40 -171 -5 -12 -12 -48 -21 -102 -3 -16
-15 -66 -26 -110 -11 -44 -22 -89 -24 -100 -1 -11 -10 -54 -19 -95 -25 -122 6
-162 127 -165 73 -2 107 10 139 47 20 22 20 22 24 53 2 11 13 63 25 115 12 52
23 104 26 115 6 31 28 129 29 135 1 3 5 24 10 48 5 28 13 42 24 43 9 1 76 2
150 3 125 1 134 0 142 -19 7 -17 24 -93 45 -204 3 -12 12 -53 20 -90 9 -36 18
-77 20 -91 14 -78 40 -126 77 -143 47 -21 160 -16 195 10 34 25 52 77 41 117
-4 17 -10 42 -13 56 -3 14 -10 43 -16 65 -5 22 -12 56 -15 75 -3 19 -9 42 -12
50 -3 8 -7 24 -9 35 -1 11 -15 70 -29 130 -14 61 -28 121 -31 135 -3 14 -16
70 -29 125 -13 55 -26 111 -29 125 -3 20 -47 206 -82 355 -3 11 -7 31 -10 45
-3 14 -12 54 -20 90 -9 36 -17 73 -19 83 -2 10 -6 26 -9 35 -3 9 -7 28 -10 42
-3 14 -7 34 -10 45 -17 73 -68 294 -72 315 -3 14 -18 38 -33 54 -25 25 -38 29
-90 31 -42 1 -69 -3 -88 -15z m78 -712 c0 -7 2 -20 4 -28 3 -15 20 -95 28
-135 3 -11 8 -42 11 -70 4 -27 10 -66 12 -85 9 -58 12 -79 19 -99 5 -17 -1
-20 -57 -23 -98 -5 -110 -1 -104 30 3 15 8 41 11 57 2 17 7 41 10 55 3 14 7
41 9 60 3 19 7 46 10 60 5 26 13 73 23 148 5 38 22 59 24 30z"/>
<path d="M6834 2893 c-48 -27 -69 -46 -88 -75 l-17 -26 -187 0 -186 1 -23 -27
c-31 -36 -29 -71 6 -106 l29 -29 177 0 178 1 36 -37 c88 -94 214 -98 297 -9
12 13 24 28 25 33 3 8 87 11 256 12 236 1 254 2 278 21 34 27 34 80 0 113 -27
28 -11 27 -316 26 l-205 0 -18 30 c-10 17 -39 44 -64 60 -55 35 -129 39 -178
12z"/>
<path d="M8603 2815 c-28 -28 -33 -41 -34 -81 -4 -126 4 -164 37 -195 23 -22
34 -24 115 -24 90 0 90 0 119 34 24 27 30 43 31 85 3 183 -20 214 -161 214
-71 0 -76 -2 -107 -33z"/>
<path d="M4220 2509 c-65 -14 -82 -46 -85 -165 -2 -50 -6 -106 -10 -125 -12
-55 -44 -119 -60 -119 -8 0 -15 -4 -15 -9 0 -8 -57 -25 -74 -22 -20 4 -25 -30
-25 -163 l0 -139 59 6 c91 8 186 49 256 110 39 33 105 132 119 177 1 3 4 12 8
20 20 53 36 164 38 270 2 85 -14 128 -53 147 -27 14 -115 21 -158 12z"/>
<path d="M5553 2291 c-63 -17 -83 -79 -39 -122 13 -14 66 -48 118 -76 85 -47
119 -63 248 -120 115 -51 459 -155 560 -169 14 -1 48 -7 75 -12 28 -5 57 -10
65 -10 8 0 44 -4 80 -9 80 -10 431 -10 520 -1 209 23 363 57 607 132 143 45
527 220 555 253 22 27 16 93 -11 114 -34 28 -57 24 -151 -29 -108 -61 -281
-143 -350 -167 -3 -1 -12 -5 -20 -8 -124 -52 -353 -111 -550 -142 -164 -25
-435 -26 -665 0 -31 3 -136 22 -220 39 -47 10 -144 37 -200 56 -33 11 -62 20
-65 20 -3 0 -47 16 -99 36 -112 44 -273 122 -345 168 -75 48 -89 54 -113 47z"/>
</g>
</svg>
